<?xml version="1.0" encoding="utf-8"?>
<!-- Generator: Adobe Illustrator 24.3.0, SVG Export Plug-In . SVG Version: 6.00 Build 0)  -->
<svg version="1.1" id="Layer_1" xmlns="http://www.w3.org/2000/svg" xmlns:xlink="http://www.w3.org/1999/xlink" x="0px" y="0px"
	 viewBox="0 0 99.4 99.4" enable-background="new 0 0 99.4 99.4" xml:space="preserve">
<circle fill="#92B4E3" cx="49.7" cy="49.67" r="48.69"/>
<path fill="#92B4E3" d="M49.7,0C22.25,0,0,22.25,0,49.7s22.25,49.7,49.7,49.7s49.7-22.25,49.7-49.7l0,0C99.4,22.25,77.15,0,49.7,0z
	 M49.7,97.4C23.36,97.4,2,76.04,2,49.7S23.36,2,49.7,2s47.7,21.36,47.7,47.7c0.01,26.34-21.34,47.69-47.68,47.7
	C49.71,97.4,49.71,97.4,49.7,97.4z"/>
<linearGradient id="SVGID_1_" gradientUnits="userSpaceOnUse" x1="59.62" y1="35.5" x2="114.1965" y2="35.5" gradientTransform="matrix(1 0 0 -1 -14.8 85.2)">
	<stop  offset="0" style="stop-color:#7BA4DD"/>
	<stop  offset="1" style="stop-color:#628DD6"/>
</linearGradient>
<path fill="url(#SVGID_1_)" d="M49.7,0c-1.65,0-3.27,0.08-4.88,0.24C72.14,2.93,92.1,27.26,89.4,54.58
	c-2.33,23.59-20.99,42.25-44.58,44.58c1.61,0.16,3.23,0.24,4.88,0.24c27.45,0,49.7-22.25,49.7-49.7C99.39,22.25,77.15,0,49.7,0z"/>
<path fill="#FFFFFF" d="M77.25,49.65H26.08v-22H66.2v5.95H44.39v8h0.42h32.44V49.65z"/>
<path fill="#FFFFFF" d="M26.05,78.86V52.69h18.27c0.01,0.14,0.01,0.28,0,0.42v25.6c0,0,0,0.1,0,0.15L26.05,78.86z"/>
<rect x="64.95" y="52.7" fill="#FFFFFF" width="10.98" height="6.41"/>
<g>
	<g>
		<path d="M2.62,77.74c0.61-0.22,1.23-0.45,1.84-0.66c9.2-3.29,18.4-6.56,27.61-9.81c0.7-0.25,1.41-0.5,2.11-0.74
			c0.08-0.03,0.17-0.11,0.24-0.04c0.06,0.07,0,0.17-0.03,0.25c-0.26,0.75-0.52,1.5-0.79,2.24c-2.96,8.31-5.89,16.63-8.88,24.93
			c-0.49,1.36-0.99,2.72-1.49,4.08c-0.04,0.1-0.08,0.2-0.12,0.31c-0.09-0.09-0.11-0.18-0.15-0.27c-1.4-3.25-2.8-6.5-4.2-9.75
			c-0.17-0.39-0.35-0.78-0.51-1.17c-0.06-0.16-0.12-0.17-0.24-0.05c-1.02,1.01-2.05,2-3.07,3.01c-2.74,2.73-5.48,5.47-8.22,8.21
			c-0.14,0.14-0.2,0.14-0.34,0c-1.26-1.27-2.53-2.54-3.8-3.8c-0.11-0.11-0.12-0.17,0-0.29c3.76-3.75,7.52-7.51,11.28-11.26
			c0.18-0.18,0.18-0.18-0.06-0.28c-3.4-1.46-6.82-2.9-10.21-4.4c-0.33-0.14-0.65-0.3-0.98-0.45C2.61,77.77,2.62,77.75,2.62,77.74z
			 M6.64,77.92c0.07,0.04,0.13,0.07,0.2,0.1c2.23,1,4.49,1.95,6.73,2.92c0.95,0.41,1.9,0.81,2.85,1.22
			c0.14,0.06,0.19,0.11,0.05,0.22c-0.02,0.01-0.03,0.03-0.04,0.04c-3.92,3.92-7.85,7.84-11.77,11.76c-0.11,0.11-0.14,0.17-0.01,0.3
			c0.6,0.59,1.19,1.18,1.78,1.78c0.12,0.12,0.18,0.1,0.28-0.01c2.08-2.08,4.15-4.16,6.24-6.23c1.84-1.83,3.68-3.65,5.53-5.47
			c0.2-0.2,0.21-0.2,0.32,0.06c0.46,1.06,0.91,2.12,1.37,3.18c0.89,2.06,1.76,4.12,2.68,6.16c0.05,0.11,0.09,0.24,0.21,0.36
			c3.02-8.45,6.02-16.88,8.96-25.35C31.32,69.06,6.96,77.68,6.64,77.92z"/>
	</g>
</g>
</svg>
